<svg width="285" height="233" viewBox="0 0 285 233" fill="none" xmlns="http://www.w3.org/2000/svg">
<g clip-path="url(#clip0_69_68)">
<path d="M132.2 219.095C132.54 224.776 128.809 226.935 124.061 227.154C119.313 227.372 115.345 225.566 115.006 219.886C114.667 214.206 126.204 205.369 126.204 205.369C126.204 205.369 131.861 213.416 132.2 219.095Z" fill="#F2F2F2"/>
<path d="M120.556 225.981L121.862 221.361L126.948 216.347L122.068 220.637L122.655 218.56L126.212 214.908L122.81 218.008L123.867 214.271L127.375 211.501L124.033 213.684L125.886 206.815L123.217 215.866L123.338 215.495L121.604 211.348L123.104 216.207L121.753 220.344L121.775 220.232L119.68 215.814L121.662 220.622L121.493 221.14L121.486 221.147L121.477 221.19L118.045 231.69L118.894 231.862L120.44 226.393L124.614 222.844L120.556 225.981Z" fill="#D6D6E3"/>
<path d="M119.507 232.793H116.069V56.0324C116.069 55.6325 116.25 55.2489 116.573 54.9661C116.895 54.6833 117.332 54.5244 117.788 54.5244C118.244 54.5244 118.681 54.6833 119.004 54.9661C119.326 55.2489 119.507 55.6325 119.507 56.0324V232.793Z" fill="#E6E6E6"/>
<path d="M150.062 232.96H82.2576C82.2002 232.972 82.1405 232.972 82.0831 232.96C82.0256 232.949 81.9718 232.926 81.9257 232.894C81.8796 232.862 81.8423 232.821 81.8167 232.774C81.7911 232.728 81.7778 232.677 81.7778 232.625C81.7778 232.573 81.7911 232.522 81.8167 232.476C81.8423 232.429 81.8796 232.388 81.9257 232.356C81.9718 232.324 82.0256 232.301 82.0831 232.29C82.1405 232.278 82.2002 232.278 82.2576 232.29H150.062C150.12 232.278 150.179 232.278 150.237 232.29C150.294 232.301 150.348 232.324 150.394 232.356C150.44 232.388 150.478 232.429 150.503 232.476C150.529 232.522 150.542 232.573 150.542 232.625C150.542 232.677 150.529 232.728 150.503 232.774C150.478 232.821 150.44 232.862 150.394 232.894C150.348 232.926 150.294 232.949 150.237 232.96C150.179 232.972 150.12 232.972 150.062 232.96Z" fill="#CCCCCC"/>
<path d="M143.363 77.6456H93.3415C92.8858 77.6451 92.449 77.4861 92.1267 77.2035C91.8045 76.9208 91.6233 76.5376 91.6227 76.1378V63.4041C91.6233 63.0044 91.8045 62.6212 92.1267 62.3385C92.449 62.0558 92.8858 61.8968 93.3415 61.8963H143.367C143.66 61.8965 143.948 61.9624 144.204 62.0876L157.14 68.4204C157.407 68.5509 157.629 68.7414 157.784 68.9722C157.939 69.203 158.021 69.4659 158.022 69.7338C158.022 70.0016 157.942 70.2648 157.788 70.4963C157.634 70.7277 157.413 70.919 157.147 71.0506L144.207 77.4512C143.949 77.5786 143.659 77.6455 143.363 77.6456Z" fill="#FF6363"/>
<path d="M138.798 105.123H88.7776C88.4819 105.123 88.1912 105.056 87.9336 104.929L74.994 98.5281C74.728 98.3966 74.5068 98.2052 74.3531 97.9738C74.1993 97.7423 74.1187 97.4791 74.1194 97.2113C74.12 96.9434 74.2021 96.6805 74.357 96.4497C74.5119 96.2189 74.7341 96.0284 75.0008 95.8979L87.9368 89.5651C88.1929 89.4399 88.4812 89.374 88.7744 89.3738H138.799C139.255 89.3743 139.692 89.5334 140.014 89.816C140.336 90.0987 140.518 90.4819 140.518 90.8816V103.615C140.518 104.015 140.336 104.398 140.014 104.681C139.692 104.963 139.255 105.122 138.799 105.123L138.798 105.123Z" fill="#E6E6E6"/>
<path d="M138.989 132.098H88.9686C88.6729 132.098 88.3822 132.031 88.1245 131.904L75.185 125.503C74.919 125.371 74.6978 125.18 74.544 124.949C74.3903 124.717 74.3097 124.454 74.3103 124.186C74.311 123.918 74.3931 123.655 74.548 123.425C74.7029 123.194 74.9251 123.003 75.1918 122.873L88.1277 116.54C88.3838 116.415 88.6722 116.349 88.9654 116.349H138.99C139.446 116.349 139.883 116.508 140.205 116.791C140.527 117.074 140.709 117.457 140.709 117.857V130.59C140.709 130.99 140.527 131.373 140.205 131.656C139.883 131.938 139.446 132.097 138.99 132.098L138.989 132.098Z" fill="#E6E6E6"/>
<path d="M29.5981 175.153L29.0102 193.202L22.7393 214.346C22.7393 214.346 24.111 217.956 23.1312 218.815C22.1514 219.675 17.6441 221.222 17.6441 221.222L21.3671 176.184L29.5981 175.153Z" fill="#090814"/>
<path d="M15.9841 218.727C15.9841 218.727 13.748 223.043 16.8784 223.435C20.0089 223.828 34.4699 224.873 33.5755 222.651C32.6812 220.429 21.7983 218.335 21.7983 218.335L15.9841 218.727Z" fill="#090814"/>
<path d="M7.65125 159.166C7.65125 159.166 10.0028 170.339 11.5706 172.231C13.1383 174.123 10.7867 187.874 10.7867 187.874C10.7867 187.874 7.25931 207.642 8.82704 210.736C10.3948 213.83 10.0028 212.799 9.80688 214.518C9.61091 216.237 9.21898 217.613 9.80688 219.16C10.3948 220.706 10.3948 220.535 10.5907 221.394C10.7867 222.254 10.5907 226.895 10.5907 226.895C10.5907 226.895 19.017 229.474 20.3891 225.692C20.3891 225.692 18.4294 223.285 19.0173 221.395C19.6303 219.492 19.9597 217.527 19.9972 215.55V211.939L29.0116 182.371L31.1673 171.713C31.1673 171.713 30.5794 160.883 28.4237 159.852C26.2681 158.82 7.65125 159.166 7.65125 159.166Z" fill="#090814"/>
<path d="M11.1783 226.035C11.1783 226.035 8.23879 231.708 12.3541 232.224C16.4694 232.74 35.4782 234.115 34.3024 231.192C33.1266 228.27 18.8217 225.52 18.8217 225.52L11.1783 226.035Z" fill="#090814"/>
<path d="M14.9034 109.666C19.2324 109.666 22.7418 106.588 22.7418 102.79C22.7418 98.9927 19.2324 95.9142 14.9034 95.9142C10.5745 95.9142 7.06512 98.9927 7.06512 102.79C7.06512 106.588 10.5745 109.666 14.9034 109.666Z" fill="#FFB9B9"/>
<path d="M9.39536 105.829L9.54144 114.61L19.1513 114.638C19.1513 114.638 16.7124 107.764 17.8048 106.326C18.8973 104.889 9.39536 105.829 9.39536 105.829Z" fill="#FFB9B9"/>
<path d="M23.7195 119.457C23.7195 119.457 16.861 111.722 11.5695 114.988C6.27805 118.253 4.31909 125.99 4.31909 125.99L5.49489 147.65C5.49489 147.65 8.4344 150.744 6.6707 152.807C4.90699 154.87 3.92716 154.355 5.29893 155.902C6.67069 157.449 8.23843 158.652 7.65053 159.168C7.06263 159.684 8.23843 160.027 8.23843 160.027L29.0109 160.543C29.0109 160.543 28.423 159.856 30.1867 157.793C31.9504 155.73 29.7948 152.979 30.1867 151.948C30.5787 150.916 30.9706 152.12 31.1666 149.713C31.3625 147.306 23.7195 119.457 23.7195 119.457Z" fill="#E6E6E6"/>
<path d="M21.7598 163.807C21.7598 163.807 22.1517 168.105 25.0912 168.792C26.1936 169.05 27.0203 168.559 27.6231 167.843C28.186 167.158 28.5016 166.34 28.529 165.496C28.5564 164.652 28.2945 163.819 27.777 163.107L27.0509 162.088L21.7598 163.807Z" fill="#FFB9B9"/>
<path d="M3.63216 110.776C3.63216 110.776 3.43619 114.214 3.63216 114.73C3.82812 115.245 4.02409 115.761 3.63216 116.277C3.24022 116.793 3.43619 118.512 3.82812 118.684C4.22005 118.855 3.04425 120.403 3.43618 121.434C3.67689 122.042 4.00624 122.62 4.41602 123.153C4.61198 123.497 4.92767 124.113 4.92767 124.113C4.92767 124.113 10.687 113.355 15.3902 115.933C20.0934 118.511 23.8164 119.371 23.8164 119.371C23.8164 119.371 21.2692 107.338 3.63216 110.776Z" fill="#E6E6E6"/>
<path d="M12.1581 118.768C12.1581 118.768 5.88719 119.284 6.27912 126.504C6.67106 133.724 5.69122 145.07 5.69122 145.07C5.69122 145.07 16.469 159.51 18.2331 160.542C19.9972 161.573 20.1928 161.401 19.9968 162.261C19.8008 163.12 19.6049 163.808 20.3887 164.496C20.8515 164.904 21.3796 165.252 21.9565 165.527C21.9565 165.527 28.2274 163.636 27.6392 161.917C27.0509 160.198 24.3077 157.448 24.3077 157.448C24.3077 157.448 19.6045 150.743 19.4089 149.712C19.2133 148.681 19.2129 148.853 18.625 148.337C18.0371 147.821 16.4694 145.758 16.4694 144.727V141.46L18.1123 124.006C18.1869 123.295 18.0891 122.579 17.8255 121.903C17.5619 121.228 17.1383 120.609 16.5827 120.088C16.0239 119.568 15.3286 119.176 14.5573 118.946C13.7861 118.716 12.9624 118.655 12.1581 118.768Z" fill="#E6E6E6"/>
<path opacity="0.1" d="M6.64468 147.526L17.6448 160.048C17.6448 160.048 7.51585 152.621 6.64468 147.526Z" fill="black"/>
<path opacity="0.1" d="M17.203 133.661L17.099 145.488L23.4879 153.896L18.2605 144.47L17.203 133.661Z" fill="black"/>
<path d="M12.8397 107.098C13.3256 106.709 13.9635 106.506 14.5252 106.205C15.5125 105.637 16.2353 104.779 16.5628 103.784C16.8902 102.789 16.8005 101.724 16.3099 100.783C16.1495 100.551 16.0335 100.298 15.9664 100.034C15.8766 99.4361 16.4407 98.9092 17.0515 98.6275C17.6622 98.3458 18.3555 98.2096 18.9121 97.8553C19.3272 97.5627 19.6482 97.1801 19.8434 96.7454C20.0386 96.3108 20.1012 95.8389 20.025 95.3765C19.8566 94.4498 19.3584 93.5934 18.6018 92.9299L18.5429 93.5748C18.1075 93.3909 17.7397 93.1034 17.4813 92.7452C17.2266 92.8446 17.0053 92.9998 16.8386 93.1959C16.6719 93.3919 16.5653 93.6222 16.5292 93.8647C16.2109 94.1446 15.9205 93.3586 15.4708 93.3351C15.2823 93.3566 15.1096 93.4384 14.9858 93.5649C14.2505 94.0975 13.1922 94.0258 12.239 94.0402C10.5886 94.067 8.96865 94.4341 7.50996 95.1118C6.51532 95.5308 5.67616 96.1882 5.08948 97.0079C4.68074 97.7155 4.43389 98.4864 4.36285 99.2771C4.08741 101.207 4.12348 103.22 4.93785 105.03C5.60791 106.509 6.76252 107.782 8.25605 108.687C9.03605 109.156 11.6115 110.821 12.5759 110.217C13.7875 109.459 11.4714 108.193 12.8397 107.098Z" fill="#090814"/>
<path d="M208.552 45.2595L224.853 42L235.932 51.7985L243.583 42H257.822L269 51.7985V75.5466L257.822 88.5848L243.583 103L216.836 88.5848L205.658 75.5466L201 57.3664L208.552 45.2595Z" fill="#D9D9D9"/>
<path d="M235.02 104.956L235.818 104.4L236.613 104.557L236.814 103.928L237.571 103.57L238.371 103.723L238.871 104.779L238.552 105.64L238.099 106.639L236.373 106.672L235.505 106.375L234.874 105.684L235.02 104.956Z" fill="#D9D9D9"/>
<path d="M227.47 97.668L228.268 97.1124L229.063 97.2687L229.263 96.6404L230.02 96.2817L230.821 96.4354L231.321 97.4908L231.002 98.3519L230.548 99.3513L228.823 99.3846L227.954 99.0869L227.324 98.3963L227.47 97.668Z" fill="#D9D9D9"/>
<path d="M252.47 100.668L253.268 100.112L254.063 100.269L254.263 99.6404L255.02 99.2817L255.821 99.4354L256.321 100.491L256.002 101.352L255.548 102.351L253.823 102.385L252.954 102.087L252.324 101.396L252.47 100.668Z" fill="#D9D9D9"/>
<path d="M268.47 80.668L269.268 80.1124L270.063 80.2687L270.263 79.6404L271.02 79.2817L271.821 79.4354L272.321 80.4908L272.002 81.3519L271.548 82.3513L269.823 82.3846L268.954 82.0869L268.324 81.3963L268.47 80.668Z" fill="#D9D9D9"/>
<path d="M235.47 40.668L236.268 40.1124L237.063 40.2687L237.263 39.6404L238.02 39.2817L238.821 39.4354L239.321 40.4908L239.002 41.3519L238.548 42.3513L236.823 42.3846L235.954 42.0869L235.324 41.3963L235.47 40.668Z" fill="#D9D9D9"/>
<path d="M213.33 46.6527L229.151 43.5L239.904 52.9773L247.33 43.5H261.151L272 52.9773V75.9467L261.151 88.5574L247.33 102.5L221.37 88.5574L210.521 75.9467L206 58.3626L213.33 46.6527Z" fill="#FC4F4F"/>
<path d="M256.505 96.608L257.87 96.972L258.183 98.3262L259.246 97.7352L260.292 98.3154L260.612 99.6737L259.399 101.862L257.911 102.608L256.128 103.355L254.9 100.937L254.745 99.2807L255.332 97.4158L256.505 96.608Z" fill="#FC4F4F"/>
<path d="M244.505 36.608L245.87 36.972L246.183 38.3262L247.246 37.7352L248.292 38.3154L248.612 39.6737L247.399 41.8617L245.911 42.6075L244.128 43.3555L242.9 40.9374L242.745 39.2807L243.332 37.4158L244.505 36.608Z" fill="#FC4F4F"/>
<path d="M272.505 77.608L273.87 77.972L274.183 79.3262L275.246 78.7352L276.292 79.3154L276.612 80.6737L275.399 82.8617L273.911 83.6075L272.128 84.3555L270.9 81.9374L270.745 80.2807L271.332 78.4158L272.505 77.608Z" fill="#FC4F4F"/>
<path d="M275.505 30.608L276.87 30.972L277.183 32.3262L278.246 31.7352L279.292 32.3154L279.612 33.6737L278.399 35.8617L276.911 36.6075L275.128 37.3555L273.9 34.9374L273.745 33.2807L274.332 31.4158L275.505 30.608Z" fill="#FC4F4F"/>
</g>
<defs>
<clipPath id="clip0_69_68">
<rect width="285" height="233" fill="white"/>
</clipPath>
</defs>
</svg>
