<svg width="149" height="130" viewBox="0 0 149 130" fill="none" xmlns="http://www.w3.org/2000/svg">
<g clip-path="url(#clip0_69_110)">
<path d="M86.9551 15.3013C85.8281 13.4584 84.4927 11.4908 82.4013 10.889C79.9794 10.1921 77.4915 11.5765 75.3811 12.9425C69.07 17.028 62.9922 21.4555 57.1757 26.2047L57.182 26.2762C61.7104 25.9674 66.2388 25.6587 70.7672 25.3499C74.039 25.1268 77.4231 24.873 80.3145 23.3427C81.4116 22.762 82.4811 21.9864 83.7244 21.9323C85.269 21.8652 86.6159 22.9318 87.6743 24.0461C93.9352 30.6379 95.747 40.7182 102.771 46.5096C98.3419 35.7097 93.0533 25.2742 86.9551 15.3013Z" fill="#F2F2F2"/>
<path d="M125.44 71.2113C124.748 70.3469 124.465 70.1444 123.782 69.2721C118.221 62.1612 112.994 54.8101 108.102 47.2188C104.778 42.0631 101.62 36.8084 98.6262 31.4547C97.201 28.9095 95.8148 26.3443 94.4677 23.7591C93.4224 21.7546 92.4005 19.7382 91.4018 17.7097C91.1162 17.1303 90.8387 16.5483 90.5626 15.9649C89.9119 14.5931 89.2734 13.2146 88.5877 11.8614C87.8064 10.3191 86.8554 8.70221 85.4207 7.66601C84.7678 7.17508 83.987 6.87805 83.1697 6.80961C82.0018 6.73503 80.9241 7.21184 79.9111 7.7326C72.492 11.5888 65.5671 16.3102 59.2846 21.7959C52.9924 27.2595 47.3683 33.4321 42.5268 40.1878C42.3787 40.3969 42.0284 40.1971 42.1779 39.9867C42.7666 39.1636 43.367 38.3494 43.979 37.544C51.589 27.5371 60.9201 18.9317 71.5457 12.1211C73.3334 10.9757 75.1546 9.88404 77.0095 8.84605C77.9444 8.32263 78.8833 7.80586 79.8384 7.32106C80.7746 6.84558 81.7688 6.41804 82.8383 6.40206C86.4782 6.34612 88.3628 10.4217 89.6573 13.164C90.0641 14.0271 90.4759 14.8875 90.8926 15.7452C92.4673 19.0016 94.1027 22.2283 95.7987 25.4253C96.8453 27.3991 97.9149 29.3614 99.0075 31.3122C102.407 37.3869 106.021 43.3386 109.849 49.1674C114.919 56.8883 119.949 63.7088 125.726 70.9289C125.885 71.1287 125.6 71.4137 125.44 71.2113Z" fill="#E4E4E4"/>
<path d="M58.9249 19.7834C58.7134 19.5504 58.5032 19.3173 58.2904 19.0842C56.6119 17.2489 54.8109 15.4349 52.506 14.3827C51.407 13.8651 50.2073 13.5902 48.9901 13.5769C47.7319 13.5809 46.5021 13.9072 45.3395 14.364C44.7899 14.5811 44.2524 14.8275 43.723 15.0899C43.1182 15.3909 42.5241 15.7119 41.9328 16.0355C40.8227 16.6429 39.7271 17.2768 38.6459 17.9375C36.4946 19.252 34.4106 20.6669 32.394 22.1822C31.3487 22.968 30.3249 23.7795 29.3226 24.6168C28.3905 25.3946 27.4771 26.1933 26.5827 27.0129C26.3914 27.1874 26.1058 26.905 26.2971 26.7305C26.5328 26.5134 26.7713 26.2977 27.0097 26.0846C27.6832 25.4826 28.3676 24.8921 29.0627 24.3132C30.3303 23.2556 31.6306 22.239 32.9639 21.2632C35.037 19.7448 37.1816 18.3295 39.3975 17.0171C40.5048 16.3619 41.6274 15.7341 42.7652 15.1339C43.1088 14.9527 43.4563 14.7756 43.8079 14.6078C44.6056 14.2099 45.4345 13.8763 46.2865 13.6102C47.4934 13.2242 48.7703 13.1001 50.0301 13.2466C51.2464 13.4215 52.4184 13.8224 53.484 14.428C55.7471 15.6786 57.5023 17.6125 59.2105 19.4997C59.3829 19.6915 59.0986 19.9752 58.9249 19.7834Z" fill="#E4E4E4"/>
<path d="M105.295 38.8023L110.718 36.8413L113.41 35.8676C114.287 35.5505 115.162 35.1895 116.068 34.9624C116.856 34.7399 117.693 34.7505 118.474 34.9927C119.172 35.2479 119.81 35.639 120.351 36.1429C120.904 36.6463 121.418 37.1896 121.89 37.7681C122.476 38.4647 123.054 39.1685 123.634 39.87C126.028 42.7651 128.407 45.6728 130.77 48.5931C133.133 51.5133 135.48 54.446 137.812 57.391C140.149 60.3433 142.47 63.3079 144.775 66.2848C145.057 66.6495 145.339 67.0143 145.621 67.3794C145.777 67.5811 146.128 67.3822 145.97 67.1777C143.648 64.1709 141.31 61.1763 138.956 58.194C136.596 55.2047 134.219 52.228 131.826 49.2639C129.434 46.3 127.025 43.3489 124.6 40.4106C123.996 39.6786 123.391 38.9474 122.785 38.217C122.273 37.6009 121.768 36.9781 121.207 36.4047C120.178 35.3521 118.891 34.4218 117.352 34.3966C116.447 34.3817 115.571 34.6657 114.73 34.9665C113.823 35.2908 112.919 35.6211 112.013 35.9486L106.553 37.9233L105.187 38.417C104.945 38.5047 105.05 38.891 105.295 38.8023Z" fill="#E4E4E4"/>
<path d="M51.7924 16.6921C49.0366 15.2917 45.5074 15.566 42.975 17.3155C47.8053 18.1395 52.5828 19.2419 57.283 20.6173C55.3312 19.4864 53.8045 17.7145 51.7924 16.6921Z" fill="#F2F2F2"/>
<path d="M42.9478 17.3107L42.4173 17.7371C42.5968 17.5879 42.7833 17.448 42.975 17.3155C42.9659 17.314 42.9569 17.3123 42.9478 17.3107Z" fill="#F2F2F2"/>
<path d="M120.147 38.8219C119.613 38.1795 119.036 37.5068 118.237 37.2458L117.492 37.2749C123.167 47.189 130.831 55.8519 140.014 62.7319C133.391 54.7619 126.769 46.7919 120.147 38.8219Z" fill="#F2F2F2"/>
<path d="M98.8296 98.555C98.8095 98.5552 98.7896 98.5518 98.7708 98.545L84.3782 93.4068C84.3357 93.3916 84.301 93.3604 84.2818 93.3199C84.2626 93.2795 84.2604 93.2331 84.2758 93.1911C84.2911 93.149 84.3227 93.1147 84.3637 93.0958C84.4046 93.0768 84.4515 93.0746 84.494 93.0898L98.8866 98.228C98.9242 98.2414 98.9559 98.2675 98.976 98.3018C98.9961 98.336 99.0034 98.3761 98.9966 98.4151C98.9898 98.4541 98.9694 98.4895 98.9388 98.5151C98.9083 98.5407 98.8696 98.5548 98.8296 98.555Z" fill="black"/>
<path d="M73.8297 88.5565C73.8097 88.5573 73.7897 88.5546 73.7706 88.5485L59.2014 83.9348C59.1584 83.9211 59.1226 83.8912 59.102 83.8514C59.0813 83.8117 59.0775 83.7655 59.0913 83.7229C59.1051 83.6803 59.1355 83.6449 59.1757 83.6245C59.2159 83.604 59.2626 83.6001 59.3057 83.6138L73.8748 88.2276C73.9129 88.2396 73.9455 88.2646 73.9669 88.298C73.9882 88.3315 73.997 88.3713 73.9916 88.4106C73.9862 88.4498 73.9671 88.4859 73.9375 88.5126C73.9079 88.5392 73.8697 88.5548 73.8297 88.5565Z" fill="black"/>
<path d="M44.7488 80.765C44.7287 80.7647 44.7089 80.7609 44.6902 80.7537L30.4034 75.3283C30.3825 75.3204 30.3634 75.3084 30.3472 75.2932C30.3309 75.278 30.3179 75.2597 30.3088 75.2395C30.2997 75.2193 30.2947 75.1975 30.2941 75.1754C30.2935 75.1532 30.2973 75.1312 30.3054 75.1106C30.3134 75.0899 30.3254 75.071 30.3408 75.0549C30.3562 75.0389 30.3747 75.026 30.3951 75.017C30.4156 75.008 30.4376 75.0031 30.46 75.0025C30.4824 75.0019 30.5046 75.0057 30.5255 75.0137L44.8123 80.4391C44.8497 80.4533 44.8808 80.4801 44.9002 80.5147C44.9197 80.5493 44.9262 80.5895 44.9186 80.6284C44.911 80.6673 44.8899 80.7022 44.8588 80.7272C44.8278 80.7522 44.7888 80.7655 44.7488 80.765Z" fill="black"/>
<path d="M30.3097 46.4155C29.7108 46.2831 29.1043 46.1786 28.5055 46.1058L28.4183 46.0951C24.4427 45.6271 21.0863 47.2678 20.6113 49.9118L20.5269 50.3902C20.4741 50.6928 20.4173 51.018 20.3497 51.3779C20.3169 51.5555 20.4974 51.7372 20.76 51.7952L116.376 72.928C123.128 74.3714 129.859 75.7973 136.379 77.1659C137.599 77.4386 138.835 77.6362 140.08 77.7577C141.943 77.9138 143.307 77.7084 144.25 77.1298L144.25 77.1299C145.423 76.4131 145.717 75.2495 145.958 73.9143C146.443 71.218 146.96 68.3871 147.475 65.5647C147.929 63.0772 148.381 60.5964 148.81 58.2203C149.062 56.8096 149.199 55.5456 148.319 54.362C147.365 53.0813 145.322 52.0875 142.247 51.4078C142.21 51.3996 142.173 51.3914 142.135 51.3832C132.488 49.292 122.084 50.9535 116.248 55.5178C115.576 56.0434 114.93 56.6222 114.304 57.1821C113.379 58.0494 112.394 58.851 111.355 59.581C110.781 59.9715 110.173 60.3092 109.537 60.59C109.493 60.611 109.443 60.6329 109.392 60.6527C109.271 60.7062 109.147 60.756 109.028 60.7984C108.331 61.064 107.608 61.256 106.87 61.371L106.797 61.3819C106.741 61.3914 106.681 61.3999 106.622 61.4066C106.199 61.4628 105.773 61.4959 105.347 61.5059C103.504 61.5579 101.496 61.2245 99.3816 60.5145C97.4299 59.8518 95.5654 58.9605 93.8279 57.8597C91.9844 56.6943 90.3095 55.3791 88.6897 54.1073C87.9783 53.5485 87.2424 52.9708 86.5029 52.414C86.3639 52.3092 86.2271 52.2067 86.0879 52.1035C85.1823 51.4345 84.353 50.864 83.5528 50.3594C81.5884 49.1142 79.457 48.1477 77.2209 47.4882C74.8575 46.809 72.6813 46.6239 70.7547 46.9363C70.2196 47.0227 69.6922 47.1506 69.1773 47.3188C66.8039 48.0936 65.1002 49.6348 63.4528 51.1252C61.4035 52.9791 59.2843 54.8962 55.8478 55.3733C51.8821 55.9251 46.6703 54.1798 43.1147 52.3621C41.9969 51.7905 40.891 51.1729 39.8215 50.5754C39.3895 50.334 38.9571 50.0936 38.524 49.854C37.6728 49.3845 36.973 49.0143 36.3218 48.6884L36.1159 48.5849C36.0012 48.528 35.8864 48.4711 35.7691 48.4151C34.9934 48.0379 34.2647 47.715 33.5401 47.4275L33.3689 47.3586C33.0243 47.2263 32.7009 47.1081 32.3821 46.9983L32.2548 46.9547C31.6168 46.7403 30.9674 46.5603 30.3097 46.4155Z" fill="#F2F2F2"/>
<path d="M144.391 78.1572C144.379 78.1572 144.367 78.156 144.355 78.1536L18.2054 51.825C18.1614 51.8155 18.123 51.7893 18.0985 51.7519C18.074 51.7145 18.0655 51.669 18.0748 51.6255C18.0841 51.5819 18.1105 51.5438 18.1481 51.5193C18.1858 51.4949 18.2317 51.4862 18.2758 51.4952L144.426 77.8238C144.467 77.8323 144.504 77.8557 144.528 77.8894C144.553 77.9231 144.565 77.9647 144.56 78.0061C144.556 78.0476 144.536 78.0859 144.505 78.1138C144.473 78.1417 144.433 78.1572 144.391 78.1572Z" fill="black"/>
<path d="M118.223 17.1919C123.025 17.1919 126.917 13.3434 126.917 8.59597C126.917 3.84855 123.025 0 118.223 0C113.421 0 109.529 3.84855 109.529 8.59597C109.529 13.3434 113.421 17.1919 118.223 17.1919Z" fill="#FF6584"/>
<path d="M133.912 2.00074C129.699 1.43762 124.888 3.68938 123.796 7.75221C123.521 7.02984 123.021 6.41267 122.368 5.98987C121.714 5.56707 120.942 5.36053 120.162 5.40009C119.383 5.43965 118.636 5.72326 118.03 6.20995C117.424 6.69663 116.99 7.3612 116.791 8.10763L117.273 8.44922C126.303 10.3798 135.65 10.338 144.661 8.32679C141.731 5.2813 138.126 2.56384 133.912 2.00074Z" fill="#F0F0F0"/>
<path d="M115.842 13.462C111.629 12.8989 106.818 15.1506 105.726 19.2135C105.451 18.4911 104.951 17.8739 104.297 17.4511C103.644 17.0283 102.872 16.8218 102.092 16.8614C101.313 16.9009 100.566 17.1845 99.9598 17.6712C99.3538 18.1579 98.9199 18.8225 98.7209 19.5689L99.2033 19.9105C108.233 21.8411 117.58 21.7993 126.591 19.7881C123.66 16.7426 120.056 14.0251 115.842 13.462Z" fill="#F0F0F0"/>
<path d="M123.404 82.4341C123.232 82.2637 123.101 82.058 123.018 81.8318C122.936 81.6056 122.904 81.3642 122.926 81.1247C122.948 80.8852 123.023 80.6533 123.146 80.4456C123.268 80.2378 123.435 80.0591 123.635 79.922L120.986 66.9124L123.912 67.841L126.032 80.4246C126.243 80.7719 126.317 81.1835 126.241 81.5814C126.165 81.9793 125.945 82.3359 125.621 82.5836C125.297 82.8313 124.892 82.9529 124.484 82.9253C124.075 82.8978 123.691 82.723 123.404 82.4341Z" fill="#9E616A"/>
<path d="M119.492 54.9091L121.307 53.5544C121.307 53.5544 122.909 53.4423 123.192 56.2973C123.476 59.1523 124.058 64.7163 124.058 64.7163L126.836 77.4355L122.991 78.2699L120.016 64.5437L118.231 60.4675L119.492 54.9091Z" fill="#2F2E41"/>
<path d="M122.485 75.6782L112.256 75.5097L111.404 68.5992H122.485V75.6782Z" fill="#9E616A"/>
<path d="M113.029 117.956L110.668 117.955L109.544 108.95L113.029 108.95L113.029 117.956Z" fill="#9E616A"/>
<path d="M128.072 114.722L125.711 114.705L124.651 105.693L127.723 106.389L128.072 114.722Z" fill="#9E616A"/>
<path d="M120.687 62.6479L121.222 64.0233L121.115 65.3986L110.644 68.9845L111.163 62.9653L112.34 61.5899L120.687 62.6479Z" fill="#FFB6B6"/>
<path d="M116.195 50.2709C118.26 50.2709 119.935 48.6154 119.935 46.5732C119.935 44.5311 118.26 42.8755 116.195 42.8755C114.129 42.8755 112.455 44.5311 112.455 46.5732C112.455 48.6154 114.129 50.2709 116.195 50.2709Z" fill="#9E616A"/>
<path d="M114.085 122.388H112.41L112.111 120.824L111.345 122.388H106.901C106.688 122.388 106.48 122.321 106.309 122.196C106.137 122.071 106.01 121.896 105.947 121.695C105.884 121.494 105.887 121.278 105.956 121.079C106.026 120.88 106.158 120.708 106.333 120.588L109.882 118.165V116.583L113.615 116.804L114.085 122.388Z" fill="#2F2E41"/>
<path d="M129.311 119.163L127.636 119.152L127.348 117.586L126.57 119.144L122.127 119.114C121.914 119.112 121.707 119.043 121.536 118.917C121.365 118.791 121.24 118.615 121.178 118.413C121.116 118.212 121.121 117.996 121.192 117.797C121.262 117.599 121.396 117.428 121.572 117.309L125.138 114.911L125.149 113.329L128.88 113.576L129.311 119.163Z" fill="#2F2E41"/>
<path d="M128.807 108.312L127.088 97.9266L125.042 83.6C126.54 80.8492 123.167 72.3073 123.167 72.3073L122.69 72.3298L111.913 74.3401L111.915 74.3298C109.711 80.2742 108.981 83.2109 109.102 89.5411L109.536 112.297H109.4C109.174 112.297 108.957 112.386 108.797 112.544C108.637 112.702 108.547 112.916 108.547 113.14C108.547 113.363 108.637 113.577 108.797 113.735C108.957 113.893 109.174 113.982 109.4 113.982H113.661C113.887 113.982 114.104 113.893 114.264 113.735C114.424 113.577 114.514 113.363 114.514 113.14C114.514 112.916 114.424 112.702 114.264 112.544C114.104 112.386 113.887 112.297 113.661 112.297H113.552L117.463 85.2015L120.78 96.5782L124.53 108.208C123.167 107.871 123.378 108.652 123.378 109.094C123.378 109.318 123.468 109.532 123.628 109.69C123.788 109.848 124.005 109.937 124.231 109.937H128.493C128.691 109.937 128.883 109.869 129.036 109.744C129.189 109.619 129.293 109.446 129.33 109.253C129.367 109.061 129.335 108.862 129.24 108.69C129.144 108.518 128.991 108.385 128.807 108.312Z" fill="#2F2E41"/>
<path d="M124.006 72.7497L123.665 69.3787C123.629 69.2412 123.551 69.1183 123.441 69.0276C123.33 68.937 123.193 68.8832 123.05 68.874C122.908 67.2682 122.311 60.3406 122.275 60.0385L122.273 60.0257L122.002 54.2853C121.992 54.0768 121.905 53.8792 121.757 53.7303C121.609 53.5814 121.411 53.4915 121.2 53.4779L119.764 53.3851C119.745 53.3845 119.726 53.3763 119.712 53.3623C119.699 53.3483 119.691 53.3296 119.691 53.3101C119.691 53.1533 119.66 52.9981 119.599 52.8533C119.539 52.7085 119.45 52.5769 119.338 52.4661C119.225 52.3553 119.092 52.2674 118.946 52.2074C118.799 52.1474 118.642 52.1165 118.484 52.1165H114.234C113.959 52.1166 113.693 52.2161 113.486 52.3962C113.28 52.5763 113.147 52.8247 113.113 53.0947C113.111 53.1133 113.102 53.1305 113.088 53.1429C113.074 53.1553 113.055 53.1619 113.036 53.1615L113.036 53.1615C112.553 53.1517 112.083 53.3133 111.71 53.6171C111.337 53.9209 111.087 54.3468 111.005 54.8174C110.424 58.1599 109.259 65.746 109.835 69.9635C110.035 71.4317 109.603 70.2688 109.528 71.4972C109.52 71.616 109.536 71.735 109.575 71.8475C109.614 71.96 109.676 72.0637 109.755 72.1528C109.404 72.2536 109.268 72.6284 109.358 72.9814L109.284 72.9632C109.328 73.1365 109.44 73.2855 109.595 73.3772C109.75 73.4688 109.936 73.4958 110.112 73.4521L123.17 70.1973C123.536 70.1063 124.098 73.1108 124.006 72.7497Z" fill="#2F2E41"/>
<path d="M109.633 82.4341C109.804 82.2637 109.936 82.058 110.018 81.8318C110.101 81.6056 110.132 81.3642 110.11 81.1247C110.088 80.8852 110.013 80.6534 109.891 80.4456C109.768 80.2378 109.601 80.0591 109.401 79.922L112.05 66.9124L109.125 67.841L107.004 80.4247C106.794 80.7719 106.719 81.1835 106.795 81.5814C106.871 81.9793 107.092 82.3359 107.416 82.5836C107.74 82.8313 108.144 82.9529 108.553 82.9253C108.961 82.8978 109.346 82.723 109.633 82.4341Z" fill="#9E616A"/>
<path d="M113.544 54.9091L111.729 53.5544C111.729 53.5544 110.128 53.4423 109.844 56.2973C109.561 59.1523 108.978 64.7163 108.978 64.7163L106.201 77.4355L110.046 78.2699L113.021 64.5437L114.805 60.4675L113.544 54.9091Z" fill="#2F2E41"/>
<path d="M120.2 43.2853C120.896 43.4903 121.546 42.9141 122.031 42.3682L121.859 42.5704C123 43.3647 123.682 44.6587 124.124 45.9685C124.567 47.2769 124.814 48.6474 125.313 49.9371C125.813 51.2253 126.619 52.4716 127.854 53.1143C129.507 53.975 131.533 53.5836 133.292 52.9626C133.315 52.9539 133.337 52.9467 133.36 52.9381C132.648 51.6226 132.212 50.1784 132.078 48.6922C132.801 50.0887 133.845 51.2988 135.125 52.2261C136.274 51.7096 137.379 51.1021 138.429 50.4093C139.108 49.9602 139.824 49.3796 139.902 48.5752C139.983 47.7766 139.38 47.0473 138.668 46.6632C137.957 46.279 137.139 46.149 136.362 45.918C135.586 45.6883 134.795 45.3114 134.387 44.6182C133.448 43.0239 135.028 40.7753 134.02 39.2214C133.524 38.4574 132.56 38.1512 131.666 37.9389C130.301 37.6163 128.916 37.3852 127.52 37.2472C126.295 37.1259 125.029 37.0811 123.863 37.471C122.697 37.861 121.64 38.7665 121.39 39.9593C120.709 40.3132 119.989 40.7045 119.624 41.3761C119.259 42.0462 119.462 43.0686 120.2 43.2853Z" fill="#2F2E41"/>
<path d="M121.24 43.0166C121.907 43.8429 122.27 44.7366 122.27 45.2717C123.656 47.7762 121.674 49.9275 119.141 51.2978C118.131 51.8472 116.964 52.0483 115.825 51.8693L115.719 51.422L115.576 51.8249C115.576 51.8249 113.926 57.2106 113.382 57.5266C113.589 56.5681 113.825 52.1302 113.94 51.1948C114.099 49.9217 113.545 48.0263 113.145 46.8736C112.896 46.1632 112.769 45.4171 112.768 44.6656V44.6327L112.378 45.8699L110.96 45.2717C111.224 43.7754 110.96 42.0768 114.123 42.2241C115.834 41.0608 117.341 40.8836 118.578 41.2135C118.738 40.9694 119.659 41.4266 119.925 41.2981" fill="#2F2E41"/>
<path d="M124.781 69.3115C124.721 69.8419 124.483 70.3373 124.106 70.719C123.728 71.1007 123.233 71.3468 122.698 71.4183L114.998 72.4498C114.361 72.5345 113.716 72.3658 113.205 71.9809C112.694 71.596 112.358 71.0263 112.272 70.3969L111.162 62.283C111.09 61.7555 111.198 61.2192 111.469 60.7593L111.416 60.3649C111.197 60.2862 111.005 60.1498 110.859 59.9706C110.713 59.7914 110.619 59.5762 110.588 59.3482C110.556 59.1201 110.589 58.888 110.681 58.6769C110.774 58.4657 110.923 58.2836 111.112 58.1502L112.064 53.7932C112.051 53.6999 112.058 53.6049 112.085 53.5145C112.111 53.4241 112.157 53.3401 112.218 53.2681C112.279 53.196 112.355 53.1374 112.441 53.0961C112.526 53.0547 112.62 53.0315 112.715 53.028C112.888 53.0261 113.056 53.0876 113.186 53.2005C113.316 53.3135 113.399 53.4699 113.419 53.6398L113.506 54.2803C113.622 55.1269 114.059 55.8983 114.728 56.4385C115.398 56.9788 116.25 57.2476 117.112 57.1907C117.974 57.1338 118.782 56.7553 119.373 56.1318C119.964 55.5083 120.293 54.6863 120.294 53.832C120.294 53.6792 120.284 53.5266 120.263 53.3752L120.178 52.7448C120.15 52.5697 120.191 52.3906 120.292 52.2439C120.392 52.0972 120.545 51.9937 120.72 51.9543C120.811 51.9372 120.905 51.9387 120.996 51.9586C121.086 51.9785 121.171 52.0164 121.247 52.07C121.322 52.1237 121.385 52.1919 121.433 52.2705C121.48 52.3492 121.511 52.4366 121.523 52.5274L122.074 56.5389C122.377 56.5182 122.677 56.6049 122.921 56.7834C123.165 56.9618 123.337 57.2204 123.406 57.5127C123.475 57.8051 123.436 58.1121 123.296 58.3787C123.157 58.6453 122.926 58.8541 122.645 58.9676C122.921 59.1564 123.153 59.3999 123.329 59.6825C123.504 59.9652 123.618 60.2808 123.663 60.6093L124.774 68.7249C124.801 68.9194 124.803 69.1164 124.781 69.3115Z" fill="#FF6363"/>
<path d="M111.306 60.5433C111.297 60.4769 111.315 60.4097 111.356 60.3563C111.397 60.303 111.458 60.268 111.525 60.2589L122.021 58.6682C122.054 58.6638 122.088 58.6659 122.12 58.6743C122.153 58.6828 122.183 58.6975 122.21 58.7176C122.237 58.7378 122.259 58.7629 122.276 58.7916C122.293 58.8203 122.304 58.852 122.308 58.8849C122.313 58.9178 122.311 58.9512 122.302 58.9833C122.294 59.0154 122.279 59.0455 122.258 59.072C122.238 59.0984 122.213 59.1206 122.184 59.1373C122.155 59.154 122.122 59.1649 122.089 59.1693L111.594 60.76C111.527 60.7689 111.459 60.7511 111.405 60.7105C111.351 60.6699 111.315 60.6098 111.306 60.5433Z" fill="#3F3D56"/>
<path d="M112.533 64.8027L112.186 62.2683C112.159 62.0728 112.212 61.8748 112.333 61.7179C112.454 61.5609 112.633 61.4579 112.83 61.4314L122.854 60.1636C123.052 60.1372 123.252 60.1894 123.411 60.309C123.57 60.4285 123.674 60.6055 123.701 60.801L124.048 63.3353C124.075 63.5308 124.022 63.7288 123.901 63.8858C123.78 64.0427 123.601 64.1458 123.403 64.1722L119.399 64.7169C119.408 64.7439 119.414 64.7714 119.419 64.7992L119.774 67.3881L123.152 66.936C123.175 66.933 123.197 66.9344 123.219 66.94C123.24 66.9456 123.261 66.9554 123.279 66.9688C123.296 66.9823 123.311 66.999 123.323 67.0182C123.334 67.0373 123.341 67.0585 123.344 67.0804C123.347 67.1024 123.346 67.1247 123.34 67.1461C123.335 67.1676 123.325 67.1876 123.311 67.2053C123.297 67.2229 123.28 67.2377 123.261 67.2488C123.242 67.2599 123.22 67.2672 123.198 67.2701L119.819 67.7222L118.299 67.9256L115.089 68.3551C115.045 68.361 114.999 68.3492 114.963 68.3221C114.927 68.295 114.904 68.2549 114.898 68.2107C114.892 68.1664 114.904 68.1216 114.931 68.086C114.958 68.0505 114.999 68.0271 115.044 68.0211L118.253 67.5916L117.899 65.0027C117.896 64.9745 117.895 64.9463 117.896 64.918L113.379 65.44C113.181 65.4665 112.981 65.4142 112.822 65.2947C112.664 65.1751 112.559 64.9982 112.533 64.8027Z" fill="#3F3D56"/>
<path d="M92.8504 123.409C92.8134 123.429 92.7704 123.435 92.7296 123.425L-2.49893 101.443C-2.54271 101.432 -2.58048 101.405 -2.60394 101.367C-2.6274 101.329 -2.63463 101.284 -2.62405 101.24C-2.61348 101.196 -2.58595 101.158 -2.54752 101.135C-2.50909 101.111 -2.4629 101.103 -2.41908 101.113L92.8094 123.096C92.8428 123.104 92.873 123.121 92.896 123.147C92.919 123.172 92.9337 123.204 92.9381 123.237C92.9426 123.271 92.9366 123.306 92.9209 123.336C92.9052 123.367 92.8806 123.392 92.8504 123.409Z" fill="black"/>
<path d="M111.327 64.3157C111.331 64.267 111.324 64.2182 111.307 64.1724C111.29 64.1267 111.263 64.0851 111.228 64.0504C111.193 64.0158 111.152 63.9889 111.105 63.9715C111.059 63.9542 111.01 63.9468 110.961 63.9499C110.942 63.9506 110.924 63.9529 110.906 63.9567L108.748 64.4387C108.7 64.4503 108.655 64.4717 108.615 64.5016C108.576 64.5315 108.543 64.5692 108.52 64.6123C108.488 64.6135 108.456 64.618 108.426 64.6258C108.29 64.6562 108.172 64.7386 108.098 64.855C108.024 64.9713 108 65.112 108.03 65.2461C108.061 65.3802 108.144 65.4967 108.262 65.5701C108.38 65.6434 108.522 65.6675 108.658 65.6371C108.735 65.6194 108.807 65.5849 108.869 65.536L109.6 67.572C109.637 67.6359 109.693 67.6863 109.761 67.7157C109.829 67.7452 109.905 67.7522 109.977 67.7355L111.38 67.422C111.452 67.4054 111.516 67.3668 111.564 67.3117C111.612 67.2566 111.642 67.1878 111.648 67.1153L111.327 64.3157ZM108.625 65.4922C108.577 65.503 108.528 65.5044 108.479 65.4962C108.43 65.4881 108.384 65.4706 108.342 65.4447C108.301 65.4188 108.264 65.385 108.236 65.3453C108.207 65.3056 108.187 65.2607 108.176 65.2132C108.165 65.1657 108.164 65.1166 108.172 65.0686C108.18 65.0206 108.198 64.9746 108.224 64.9334C108.25 64.8921 108.284 64.8564 108.325 64.8282C108.365 64.8 108.41 64.7799 108.458 64.7691C108.465 64.7674 108.472 64.7691 108.479 64.7674C108.478 64.8288 108.494 64.8893 108.525 64.9427L108.792 65.4045C108.746 65.4482 108.688 65.4785 108.625 65.4922Z" fill="#CCCCCC"/>
<path d="M110.961 63.95C110.981 64.2196 110.514 64.5298 109.888 64.6528C109.314 64.7691 108.799 64.6882 108.654 64.4758C108.683 64.4587 108.715 64.4462 108.748 64.4387L110.906 63.9567C110.924 63.9529 110.942 63.9506 110.961 63.95Z" fill="#E6E6E6"/>
<path d="M109.833 69.3358L109.206 68.047C108.839 67.292 109.511 66.4887 110.704 66.2564L112.175 66.0113L112.79 70.259L112.662 70.2838C111.469 70.5161 110.2 70.0907 109.833 69.3358Z" fill="#FF6363"/>
<g opacity="0.2">
<path d="M124.781 69.3115C124.721 69.8419 124.483 70.3373 124.106 70.719C123.728 71.1007 123.233 71.3468 122.698 71.4183L114.998 72.4498C114.54 72.511 114.074 72.4416 113.656 72.2499C113.237 72.0582 112.882 71.7521 112.633 71.3677C112.85 71.1083 113.119 70.8959 113.423 70.7439C113.727 70.592 114.059 70.5037 114.399 70.4846C115.061 70.4508 115.702 70.6683 116.349 70.7896C117.916 71.0815 119.536 70.8158 120.923 70.0396C121.525 69.6941 122.067 69.2525 122.728 69.0064C123.39 68.762 124.244 68.7704 124.723 69.2474C124.744 69.2675 124.763 69.2889 124.781 69.3115Z" fill="black"/>
</g>
</g>
<defs>
<clipPath id="clip0_69_110">
<rect width="149" height="130" fill="white"/>
</clipPath>
</defs>
</svg>
